<?xml version="1.0" encoding="UTF-8" standalone="no"?>
<svg
   xmlns:dc="http://purl.org/dc/elements/1.1/"
   xmlns:cc="http://creativecommons.org/ns#"
   xmlns:rdf="http://www.w3.org/1999/02/22-rdf-syntax-ns#"
   xmlns:svg="http://www.w3.org/2000/svg"
   xmlns="http://www.w3.org/2000/svg"
   version="1.1"
   id="svg2"
   viewBox="0 0 1080 1080"
   height="12in"
   width="12in">
  <defs
     id="defs4" />
  <metadata
     id="metadata7">
    <rdf:RDF>
      <cc:Work
         rdf:about="">
        <dc:format>image/svg+xml</dc:format>
        <dc:type
           rdf:resource="http://purl.org/dc/dcmitype/StillImage" />
        <dc:title></dc:title>
      </cc:Work>
    </rdf:RDF>
  </metadata>
  <g
     transform="translate(0,27.63782)"
     id="layer1">
    <g
       transform="matrix(0.72254444,0,0,0.72254444,2906.0967,3458.0965)"
       id="layer1-9">
      <g
         transform="matrix(0.78552379,0,0,0.78552379,-2414.0471,-4243.1355)"
         id="layer1-2" />
      <path
         style="fill:#090909"
         id="path3030"
         d="m -2855.0931,-4676.7903 -6.336,7.9037 c -7.9821,9.9347 -13.3908,20.3469 -13.3908,25.6707 0,2.2498 1.3679,8.0437 3.0702,12.8682 1.7021,4.8246 2.5929,8.753 2.0248,8.753 -0.568,0 -6.8055,-2.4301 -13.9132,-5.4217 -7.1077,-2.9913 -13.1813,-5.1941 -13.5212,-4.8334 -1.2892,1.3665 3.1489,24.2937 5.6174,28.9368 3.323,6.2501 13.4563,12.3085 23.5808,14.1092 4.982,0.8863 7.9691,2.6068 7.9691,4.5724 0,1.7304 1.9217,8.5423 4.2457,15.1544 2.3239,6.6118 3.7815,12.418 3.2661,12.9335 -0.5154,0.5154 -3.5885,0.1901 -6.8586,-0.7185 -3.2703,-0.908 -6.9753,-1.8223 -8.2304,-2.0902 -4.2509,-0.908 -40.1627,-11.945 -55.9144,-17.1794 -8.6143,-2.8628 -22.7812,-9.8072 -31.4843,-15.4157 -14.0226,-9.0364 -15.4078,-10.5227 -12.3457,-13.0641 5.984,-4.9661 9.0142,-13.3321 10.19,-28.1532 0.626,-7.8931 0.5543,-14.3705 -0.1299,-14.3705 -0.6847,0 -7.8011,4.8058 -15.8075,10.6473 l -14.5664,10.5819 -5.5524,-11.6921 c -3.0555,-6.4535 -8.1415,-13.6426 -11.3656,-15.9382 -8.26,-5.8816 -25.1708,-12.8149 -26.3893,-10.8434 -1.9001,3.0745 4.4289,25.1497 9.0793,31.6804 2.542,3.5701 7.4713,8.9411 10.9739,11.8883 l 6.4014,5.3563 -9.6022,13.6521 c -9.0274,12.9138 -9.3116,13.7906 -5.0949,14.8931 8.399,2.1963 32.6813,0.1797 39.1922,-3.2662 6.4384,-3.4069 6.5213,-3.3668 19.5961,6.7933 l 13.1296,10.19 -39.8456,1.0452 c -35.0057,0.9131 -43.1197,1.7851 -67.7374,7.6425 -15.3894,3.6619 -32.6697,6.6627 -38.4084,6.6627 l -10.4513,0 3.7234,-14.3052 c 2.0587,-7.8933 3.8523,-17.4132 3.9192,-21.1639 l 0.065,-6.8586 -12.3457,7.3812 c -7.3872,4.4004 -15.0766,11.2579 -19.2042,17.1141 -3.7965,5.3862 -7.2928,9.5004 -7.7078,9.0795 -0.4148,-0.4208 0.4718,-5.5843 1.9596,-11.431 3.1275,-12.2898 2.028,-16.7564 -8.1649,-32.9216 l -6.9243,-11.0392 -7.8384,14.8931 c -4.2881,8.1603 -7.7729,16.8095 -7.7729,19.2694 0,6.0018 -1.4419,5.6424 -7.8385,-1.9594 -2.9741,-3.5346 -7.1726,-7.3312 -9.3408,-8.4918 -3.9639,-2.1214 -33.8361,-8.4129 -33.8361,-7.1199 0,0.3809 1.6009,4.7547 3.5927,9.7327 7.1315,17.8235 15.0649,23.1166 39.4536,26.1936 l 10.19,1.3064 -8.5573,7.12 c -9.5425,7.9729 -17.3281,16.8062 -21.0983,23.9724 -2.4466,4.6501 -2.224,4.7686 7.8385,4.7686 5.6929,0 15.8577,-1.0756 22.5357,-2.417 11.0552,-2.2202 12.6058,-3.2467 17.4403,-11.4963 l 5.2912,-9.0795 13.6518,4.5722 13.7173,4.5727 -16.4608,8.0342 c -9.0299,4.398 -24.8014,11.8864 -35.0772,16.6567 l -18.6814,8.6877 -7.12,-5.487 c -3.9293,-2.9967 -11.3059,-6.3482 -16.3954,-7.4465 -13.5274,-2.919 -33.7052,-4.9095 -33.7052,-3.3314 0,3.8308 17.0974,22.4414 25.0829,27.3041 5.0328,3.0652 8.6184,6.4614 7.969,7.5118 -0.6491,1.0504 -7.6544,4.9346 -15.5461,8.6223 -16.4953,7.7075 -24.6849,14.7522 -30.6355,26.324 l -4.1805,8.1652 -5.9439,-9.2755 c -7.7148,-12.0372 -12.5316,-16.1613 -29.4596,-25.1483 -7.7094,-4.0928 -14.3133,-8.3675 -14.6318,-9.537 -0.3184,-1.1692 3.5525,-4.6971 8.6223,-7.773 8.7713,-5.3217 24.2537,-24.2141 21.817,-26.6508 -0.6323,-0.6325 -9.2134,-0.027 -19.0736,1.372 -16.2017,2.2998 -21.5983,4.4543 -33.5095,13.1292 -2.6859,1.9561 -5.7832,1.3005 -14.8931,-3.0048 -6.3216,-2.9875 -21.7879,-10.2735 -34.3583,-16.1995 -12.571,-5.9258 -22.8623,-11.1868 -22.8623,-11.6921 0,-0.5055 5.6955,-2.8701 12.6723,-5.2257 l 12.6719,-4.2459 4.5728,7.3813 c 6.7836,10.9766 11.8921,13.2748 33.3131,15.1544 l 19.4657,1.7634 -4.5072,-7.5772 c -6.0765,-10.178 -11.8391,-16.5014 -21.2945,-23.4498 l -7.9691,-5.879 15.0237,-2.2208 c 8.246,-1.2241 17.335,-3.7506 20.184,-5.6177 6.1865,-4.0536 15.0101,-17.0381 16.9181,-24.887 l 1.3716,-5.6176 -14.9583,2.8741 c -17.9431,3.4189 -21.7639,5.2959 -28.6104,14.0438 l -5.2256,6.6629 -1.5677,-5.0952 c -2.8149,-9.324 -14.0117,-31.6803 -15.8727,-31.6803 -2.9932,0 -15.2456,21.428 -16.3303,28.545 -0.5508,3.6144 0.4462,11.1023 2.1557,16.6568 1.7095,5.5546 2.7196,10.1247 2.2861,10.1247 -0.4334,0 -4.6556,-5.2626 -9.4061,-11.6924 -5.7733,-7.8157 -12.1407,-13.4695 -19.2041,-17.0486 l -10.5821,-5.3564 0,10.5166 c 0,5.7904 0.8311,12.7086 1.829,15.4157 0.998,2.707 2.4175,7.4109 3.1354,10.3859 l 1.3064,5.3564 -15.3503,-1.5024 c -8.4398,-0.8404 -25.4115,-4.0618 -37.69,-7.1853 -19.034,-4.8423 -28.335,-5.8299 -63.0341,-6.7933 l -40.6947,-1.1758 12.9988,-9.994 12.999,-9.9287 10.5164,3.9845 c 10.2205,3.8834 36.536,4.7588 38.6698,1.3064 0.4813,-0.7786 -3.3842,-7.1898 -8.6223,-14.3053 l -9.5368,-12.9333 6.3361,-4.7031 c 3.4706,-2.5657 8.6738,-8.2752 11.6269,-12.7376 5.9237,-8.9511 11.09,-28.8209 8.2306,-31.6802 -2.5259,-2.5258 -17.5621,4.5693 -26.7162,12.6068 -4.1876,3.6767 -9.1083,10.4918 -10.9739,15.1542 -1.8655,4.6628 -4.3641,8.4917 -5.4869,8.4917 -1.1229,0 -8.2813,-4.3803 -15.9382,-9.7328 l -13.9133,-9.7326 0,13.5865 c 0,11.3385 1.0209,15.1441 6.2055,23.3194 l 6.2057,9.7982 -15.8079,9.7327 c -8.6709,5.351 -24.123,12.6044 -34.3583,16.0689 -25.9521,8.7846 -52.4707,16.6921 -61.3361,18.3551 l -7.5119,1.4368 3.0703,-7.381 c 1.6979,-4.064 3.7705,-11.2581 4.5723,-16.0035 1.4236,-8.4254 1.7078,-8.6943 13.456,-11.5618 10.1591,-2.4795 12.9232,-4.258 17.7672,-11.3658 6.5703,-9.6408 10.8743,-32.2917 5.7482,-30.2435 -1.5956,0.6375 -8.0188,3.1798 -14.3053,5.683 l -11.431,4.5724 1.5023,-4.8337 c 0.8184,-2.6719 1.9518,-9.1739 2.5476,-14.4356 0.967,-8.5353 0.217,-10.8095 -7.0546,-21.0986 -4.4834,-6.3436 -9.3175,-11.89 -10.7125,-12.3455 -4.1226,-1.3463 -15.458,20.6132 -15.4808,29.982 -0.021,8.3553 3.6288,23.9883 6.532,27.8917 1.034,1.3902 -5.3241,1.8802 -18.4205,1.4372 -11.3169,-0.383 -20.0534,0.1965 -20.0534,1.3064 0,3.8979 23.6354,24.2121 32.987,28.349 5.2631,2.3281 9.5365,4.964 9.5365,5.879 0,5.1347 -17.9581,26.1079 -29.786,34.7505 -46.0188,33.6255 -54.0264,40.5064 -76.817,66.2347 -24.3457,27.4845 -34.3948,44.9458 -46.3773,80.4748 -9.7077,28.784 -11.7583,36.3544 -13.9787,51.6033 -0.5108,3.5083 -2.6581,16.3972 -4.7031,28.6755 -5.5203,33.149 -4.9366,101.7606 1.1759,141.4189 4.6568,30.2119 11.6635,58.5088 19.6614,79.6909 2.4285,6.4315 4.732,13.139 5.1604,14.8931 6.5162,26.6722 50.7418,103.0685 78.7763,136.0624 12.1603,14.3113 39.3128,42.42 57.0249,58.9842 30.5356,28.5568 88.9143,67.7938 142.3331,95.6945 5.6262,2.9383 5.8021,3.3972 2.6782,7.7079 -9.3631,12.9203 -16.0479,26.5198 -16.0689,32.7909 -0.044,15.3631 13.3837,34.3599 30.8313,43.6339 12.5763,6.6849 35.8874,6.5156 45.855,-0.3266 11.6203,-7.9767 15.3964,-14.6216 16.722,-29.3289 l 1.241,-13.3252 22.6663,15.4155 c 12.4905,8.4811 29.298,20.6302 37.3633,26.9773 l 14.6969,11.4964 -4.115,12.1498 c -4.0525,11.8678 -4.0847,12.3147 -0.1964,20.2492 9.2829,18.941 32.9114,23.2621 45.3321,8.2958 2.4425,-2.943 1.5627,-3.3316 -7.4464,-3.3316 -14.8947,0 -22.3529,-8.9321 -15.938,-19.0734 1.7154,-2.7129 2.8796,-2.6688 9.0139,0.3266 10.7665,5.2572 34.2195,25.6147 46.443,40.3029 14.7425,17.7146 34.9326,48.6493 39.4534,60.4865 l 3.658,9.6674 8.7529,-16.6566 c 11.509,-21.8532 17.2729,-30.6339 31.8764,-48.533 13.2709,-16.2656 38.3739,-39.0541 49.6435,-45.0713 6.9274,-3.6983 7.2396,-3.6801 10.19,0.3267 6.9815,9.4814 -0.3939,18.2242 -15.4157,18.2242 l -9.9941,0 6.2708,6.532 c 5.5566,5.846 7.2902,6.4607 15.5466,5.5525 11.4431,-1.259 19.2607,-6.7116 24.4296,-17.114 4.0076,-8.0648 3.8582,-9.5188 -1.8943,-28.1532 -1.6297,-5.2791 10.9198,-15.9557 49.4475,-42.001 l 23.9727,-16.134 0,9.8632 c 0,22.1474 13.7091,36.4972 36.7101,38.3431 15.8725,1.2744 25.8506,-2.8842 41.2172,-17.0486 11.8352,-10.9092 14.8065,-16.6967 15.4156,-30.4392 0.4302,-9.7064 -0.4958,-12.2487 -9.0142,-24.6912 l -9.5368,-13.8479 7.7732,-4.2458 c 4.2706,-2.3174 14.4807,-7.8403 22.6662,-12.2802 82.6277,-44.8216 156.5936,-110.2715 202.1014,-178.8475 39.3789,-59.3402 62.646,-116.1245 74.7266,-182.5705 5.3209,-29.2664 5.7886,-36.4049 5.8136,-86.1576 0.024,-47.5123 -0.6167,-57.4461 -4.8992,-80.736 -11.217,-61.0037 -24.9254,-96.7282 -49.9047,-129.7266 -20.8302,-27.5172 -40.601,-45.4948 -92.7552,-84.3941 -8.956,-6.6796 -16.1501,-14.2603 -20.7065,-21.8822 l -6.924,-11.6923 10.3861,-5.3564 c 8.8253,-4.5217 34.1625,-25.879 34.1625,-28.8063 0,-0.5185 -8.7395,-0.9799 -19.4001,-0.9799 l -19.3349,0 1.4371,-5.8134 c 0.8062,-3.2158 1.9699,-12.0607 2.5474,-19.6613 0.9862,-12.9791 0.6135,-14.5082 -6.2054,-24.9526 l -7.3159,-11.1043 z m -115.5518,115.617 c 35.0863,-0.2312 73.7287,3.5497 96.8702,9.7329 16.7252,4.4688 47.6542,16.9606 52.7136,21.2943 1.4189,1.2153 4.2975,3.4683 6.4668,4.9644 3.4098,2.3513 1.2576,3.0725 -16.1995,5.3562 -11.1056,1.4533 -29.1638,4.643 -40.1068,7.0547 -10.9429,2.4119 -26.3347,4.9978 -34.2278,5.7482 l -14.3706,1.3064 -0.1298,-8.4917 c -0.1163,-9.0207 -8.4398,-33.3881 -11.7577,-34.424 -2.5582,-0.7988 -15.7422,19.4556 -15.7422,24.1689 0,2.8433 -1.5127,2.2504 -6.924,-2.809 -3.8005,-3.5531 -9.9508,-7.6905 -13.6521,-9.1449 -9.2492,-3.6344 -21.9727,-6.367 -21.8823,-4.7029 0.041,0.7536 1.4635,7.6184 3.1354,15.2195 1.6719,7.601 3.0291,14.3721 3.07,15.0891 0.041,0.7169 -5.8861,1.8445 -13.1947,2.4822 -13.1552,1.1478 -35.6933,7.3452 -35.5344,9.798 0.1374,2.0984 18.5183,15.0032 24.7566,17.3753 7.4362,2.8273 14.1687,1.1 25.6709,-6.6627 5.0728,-3.4239 9.6639,-6.2055 10.19,-6.2055 0.5261,0 0.9798,2.2629 0.9798,5.0297 0,4.2111 -2.0529,5.7955 -12.6721,9.6675 -6.9773,2.5441 -13.27,5.5162 -13.9786,6.6627 -1.1072,1.7916 12.7455,9.2071 25.2137,13.456 5.0334,1.7152 3.3287,6.8412 -1.9596,5.8788 -16.0287,-2.9162 -37.5827,-2.5717 -47.4881,0.7186 -5.9258,1.9684 -10.7778,4.419 -10.7778,5.487 0,2.8714 16.9561,14.634 23.2541,16.1339 8.6575,2.0617 8.8997,2.758 3.2006,8.8182 -5.2081,5.5387 -15.8722,25.9274 -19.0082,36.3182 -1.5014,4.9748 -1.3377,5.0275 8.8182,3.5275 19.0778,-2.8176 31.3463,-13.5983 33.6401,-29.5903 0.8189,-5.7091 2.2656,-12.4165 3.2661,-14.8931 1.5802,-3.9121 1.8422,-3.6261 1.9596,2.2862 0.1956,9.8786 4.2507,27.2274 7.3159,31.4192 2.3402,3.2004 3.4953,2.2146 10.3859,-8.949 10.346,-16.7617 12.084,-27.6555 6.0095,-37.9511 -4.3616,-7.3922 -4.4488,-7.9895 -0.9798,-11.8228 3.5566,-3.9304 3.7486,-3.852 6.4667,2.6128 1.537,3.6549 3.9367,12.6379 5.2909,19.9878 l 2.4169,13.3908 8.4263,-1.1758 c 8.3412,-1.1188 8.4305,-1.0714 7.1852,5.0296 -3.1379,15.3755 -3.1787,19.5256 -0.1314,31.2886 3.0397,11.7301 3.0042,12.8229 -0.5878,16.8527 -3.8325,4.2997 -3.7741,4.295 16.4608,3.2661 11.1491,-0.5672 22.3614,-2.1407 24.9523,-3.5274 4.0265,-2.1549 5.8163,-1.2201 4.5724,2.417 -0.1,0.2919 2.1346,6.8087 5.0298,14.5008 5.1352,13.6427 5.206,14.0502 1.241,16.5262 -3.2202,2.0111 -6.5123,1.8069 -15.8728,-0.9145 -8.74,-2.5406 -15.6922,-2.9884 -26.5854,-1.894 -8.099,0.8129 -15.1577,2.1896 -15.7423,3.1353 -1.2875,2.0833 12.6023,12.5963 23.7767,17.963 l 8.0997,3.9192 -7.9691,8.2956 c -9.095,9.4649 -17.8848,25.5738 -19.6614,36.057 -0.6627,3.9106 -1.7399,8.7623 -2.3515,10.7779 -1.0344,3.4079 -0.5643,3.4767 6.6627,0.457 16.0273,-6.6966 30.3605,-17.9642 33.8358,-26.6506 1.8369,-4.5904 3.3315,-9.7659 3.3315,-11.4964 0,-3.9476 -0.088,-3.9535 12.1496,0.8492 5.5978,2.1971 15.322,4.6944 21.621,5.5524 l 11.431,1.5023 -1.5023,-6.0749 c -2.9091,-11.8112 -11.7118,-24.0202 -19.7268,-27.3693 l -7.7078,-3.266 7.2507,-7.5119 c 4.0048,-4.1405 12.1162,-10.3762 17.963,-13.848 l 10.582,-6.2707 -8.949,8.2306 -8.9489,8.2955 5.487,2.4822 c 3.0319,1.3815 9.8189,3.0753 15.0237,3.7886 8.437,1.1564 9.2655,1.8266 7.9691,5.8136 -0.7999,2.4595 -1.9507,10.9819 -2.5476,18.9428 l -1.0451,14.4359 -13.456,8.4917 c -23.6669,14.9471 -34.8811,31.9969 -34.8811,52.975 0,12.3996 5.1101,26.4596 11.4965,31.7455 2.0609,1.7059 8.8077,3.6924 15.0237,4.3765 l 11.3004,1.2412 -1.2412,-8.6223 c -0.6722,-4.7288 -1.2141,-15.7987 -1.241,-24.6259 -0.091,-29.3666 11.0273,-41.7183 35.4689,-39.3881 35.1739,3.353 68.8557,36.4197 76.033,74.5958 3.5503,18.8839 1.1095,66.127 -4.507,87.1376 -4.3121,16.1309 -16.0642,46.9285 -22.2743,58.4616 -1.5742,2.9235 -5.8926,11.0776 -9.6674,18.0939 -15.6016,28.9982 -44.4938,65.2107 -69.9582,87.7908 -28.7566,25.4992 -31.8647,28.0875 -33.9667,28.0875 -1.082,0 -2.2883,0.866 -2.6781,1.8944 -1.1182,2.9507 -37.682,23.205 -50.5581,28.0226 -40.9389,15.317 -80.878,20.5173 -113.5269,14.7621 -18.1245,-3.1947 -53.4795,-14.3192 -80.736,-25.4095 -40.8532,-16.6225 -66.1896,-16.6148 -98.6339,0.065 -9.6532,4.9628 -23.0827,13.5314 -29.8515,19.0083 l -12.2803,9.9288 -10.1899,-8.9489 c -5.594,-4.9227 -18.5573,-13.343 -28.8062,-18.747 -34.5008,-18.1907 -60.3428,-18.376 -102.3572,-0.7839 -22.427,9.3908 -57.2075,20.385 -78.1885,24.6912 -17.6119,3.6146 -52.3066,2.7327 -72.7669,-1.829 -61.7946,-13.7776 -112.3091,-46.5481 -162.648,-105.4272 -27.2526,-31.8764 -52.7292,-78.7791 -66.039,-121.6267 -10.0559,-32.3734 -12.4702,-76.4597 -5.5522,-100.9854 9.8851,-35.0443 36.3539,-61.3027 68.4558,-67.9332 16.6046,-3.4294 27.4413,-0.2418 35.5344,10.3861 5.7973,7.6131 5.901,8.2329 5.4869,34.6195 l -0.4573,26.8469 10.9086,-1.3717 c 12.7166,-1.6316 21.3561,-9.5666 24.8216,-22.7314 2.4904,-9.4605 1.0116,-26.9332 -2.9392,-34.5546 -5.2886,-10.2026 -20.4843,-25.4317 -32.9215,-32.987 l -12.4763,-7.5772 -0.7838,-14.3051 c -0.4463,-7.8662 -1.6232,-15.9003 -2.5476,-17.8977 -1.3232,-2.8596 -0.3793,-3.9412 4.3765,-4.9643 3.3221,-0.715 10.258,-2.7962 15.4157,-4.638 l 9.4061,-3.3311 -8.0345,-7.1853 c -4.41,-3.9242 -7.361,-7.1198 -6.5973,-7.1198 2.0698,0 22.9462,15.8282 27.2385,20.6412 3.6013,4.0374 3.4291,4.3692 -4.2456,9.3407 -7.571,4.9044 -15.3057,16.2543 -18.6163,27.2387 -1.5171,5.034 -1.4084,5.0533 9.602,3.5925 6.1225,-0.812 16.0172,-3.3386 22.0131,-5.6175 5.9955,-2.2788 11.0296,-4.1799 11.1696,-4.1805 0.1405,-6e-4 1.5,4.4238 3.0048,9.798 1.5474,5.5267 5.429,12.3265 9.0142,15.677 6.6723,6.236 30.5064,18.6146 32.3336,16.7874 0.5879,-0.5879 -0.4261,-6.788 -2.2208,-13.7174 -3.4478,-13.3096 -10.3692,-25.443 -20.4454,-35.8609 l -6.0749,-6.3359 7.9693,-4.638 c 20.3386,-11.8462 28.1668,-18.975 21.3597,-19.4654 -1.4616,-0.1042 -8.9166,-0.8163 -16.5261,-1.6332 -10.3036,-1.1057 -16.4172,-0.6485 -23.907,1.8945 -7.6591,2.6003 -11.2634,2.9188 -15.0893,1.1758 l -5.0295,-2.3515 4.9644,-12.019 c 2.7211,-6.6157 5.0024,-14.2923 5.0294,-17.0486 0.039,-3.9325 0.8038,-4.6671 3.7232,-3.4621 8.1619,3.3683 19.3092,5.1174 32.0725,5.0298 13.2606,-0.092 13.3718,-0.1465 10.386,-4.7031 -2.0093,-3.0665 -2.4823,-6.2274 -1.3064,-9.4061 2.5692,-6.9444 3.1359,-23.5189 1.1104,-34.2934 l -1.7637,-9.3406 8.7531,1.1755 c 9.6118,1.2893 8.9222,2.1494 11.9536,-16.5259 0.759,-4.6776 2.7641,-11.7908 4.4418,-15.8076 l 3.0699,-7.2505 3.3966,4.8336 c 3.1748,4.5327 3.1091,5.4041 -1.3063,13.2601 -6.0941,10.8425 -4.673,19.516 6.0749,36.0568 l 8.0342,12.2803 4.5727,-9.5368 c 2.8842,-5.9369 4.6631,-13.6308 4.7031,-20.5758 0.08,-13.5077 3.4761,-9.6127 5.4869,6.2708 1.6132,12.7454 5.0943,18.4397 15.2195,24.9521 9.4152,6.0557 28.0878,9.4346 28.0878,5.0952 0,-4.9192 -12.371,-29.1118 -17.9631,-35.1426 -2.9754,-3.2089 -5.4216,-6.5901 -5.4216,-7.4462 0,-0.8567 4.6763,-3.5538 10.386,-6.0095 5.7091,-2.4564 12.9643,-7.1427 16.1341,-10.4513 l 5.8136,-6.0095 -11.6925,-3.3967 c -13.1541,-3.8244 -36.6124,-4.5227 -45.0711,-1.3064 -4.2634,1.621 -6.3311,1.3765 -8.6877,-0.9799 -2.7109,-2.7108 -2.1296,-3.3515 4.8991,-5.3563 4.4155,-1.2591 12.2266,-4.5093 17.3099,-7.1852 l 9.2102,-4.8337 -12.6722,-5.6828 c -6.9836,-3.1344 -13.5712,-5.683 -14.6318,-5.683 -1.0603,0 -2.1094,-2.4328 -2.3513,-5.3563 -0.242,-2.9233 -0.1027,-5.291 0.3263,-5.291 0.43,0 6.3327,3.3536 13.1295,7.4467 6.7967,4.0926 14.2126,7.4464 16.4608,7.4464 4.4145,0 20.5759,-8.4253 20.5759,-10.7126 0,-0.7663 2.4331,-2.4567 5.3564,-3.7885 2.9232,-1.3322 5.2909,-3.3598 5.2909,-4.5071 0,-3.2075 -26.8181,-10.778 -38.2124,-10.778 l -10.1899,0 2.8741,-13.2598 c 4.695,-21.8834 5.2449,-21.0956 -11.366,-16.3954 -10.0351,2.8392 -16.0512,5.962 -20.1188,10.4513 -3.1991,3.5307 -6.1812,6.4666 -6.5971,6.4666 -0.4162,0 -1.8202,-3.5839 -3.1354,-7.9691 -1.3155,-4.385 -5.2142,-11.3362 -8.6223,-15.4156 l -6.2055,-7.4466 -5.5522,17.6366 c -3.0624,9.6946 -5.5522,19.9991 -5.5522,22.862 0,4.8183 -0.7671,5.1602 -10.4513,5.1602 -5.7544,0 -18.8642,-1.9375 -29.1331,-4.3764 -10.2684,-2.4388 -30.119,-6.0674 -44.0911,-8.0341 l -25.4098,-3.5928 8.4919,-5.6175 c 15.4337,-10.2137 47.4787,-21.8733 77.4046,-28.1531 24.0038,-5.037 121.0545,-5.7026 142.2679,-0.9799 4.1277,0.9189 9.5044,4.2817 12.0844,7.512 l 4.6377,5.8134 -8.361,3.7232 c -11.1726,5.0023 -25.9417,20.9153 -22.8622,24.6258 2.9491,3.5542 17.6862,3.5111 29.7861,-0.1299 l 9.6022,-2.9392 -2.8741,9.6019 c -5.2404,17.4125 -4.0133,23.3364 8.6223,40.3681 l 11.4965,15.4156 2.2859,-10.7126 c 4.0265,-18.7747 2.9856,-30.194 -4.0498,-43.5688 -5.1316,-9.7552 -5.6742,-11.8101 -2.6779,-10.5816 9.6496,3.9554 21.2448,3.547 32.0721,-1.1107 6.0672,-2.6098 11.0393,-5.5046 11.0393,-6.4013 0,-4.3605 -27.3146,-13.5108 -45.5285,-15.285 -4.031,-0.3925 -6.7331,-2.2127 -7.8383,-5.2256 -1.5905,-4.3361 -0.1435,-4.0851 25.4097,4.5724 14.896,5.0467 40.6993,16.1185 57.3512,24.5604 27.7395,14.063 30.0401,15.6376 27.1079,18.8775 -1.76,1.945 -5.2329,8.1227 -7.7077,13.7175 -4.1651,9.4155 -4.3311,11.2507 -1.8945,24.887 1.4484,8.1027 3.2298,14.7179 3.9192,14.6971 1.8098,-0.021 11.7583,-6.8572 15.4811,-10.6472 5.0714,-5.1629 8.7289,-13.0194 11.3005,-24.2992 l 2.3515,-10.4513 7.7731,10.1246 c 4.2583,5.5768 9.2103,15.2655 11.0393,21.5559 2.9645,10.1986 4.8026,12.5089 16.6566,20.9678 17.4745,12.4694 22.6064,13.6216 32.7909,7.512 17.0678,-10.2388 25.2701,-18.3562 28.0223,-27.8267 2.3571,-8.1111 15.7842,-31.5498 18.0939,-31.5498 0.4759,0 1.9679,4.9214 3.266,10.9739 1.2981,6.0525 4.297,14.1349 6.6627,17.9631 4.255,6.8844 18.1733,17.2302 20.3146,15.0891 2.284,-2.284 5.6827,-28.4355 4.3766,-33.6402 -0.7478,-2.9786 -3.7749,-8.9737 -6.7281,-13.3254 -2.9533,-4.3513 -5.3562,-8.1796 -5.3562,-8.5569 0,-2.951 56.6816,-31.5452 67.9985,-34.2933 1.7542,-0.4259 12.506,-4.1558 23.9073,-8.2955 13.7643,-4.9982 20.7274,-6.6431 20.7067,-4.899 -0.069,5.4755 -3.5246,7.3371 -16.1343,8.6223 -12.2532,1.2484 -39.127,10.9404 -39.127,14.1093 0,2.3532 14.3064,8.4635 23.0582,9.8631 4.4447,0.7108 11.6287,0.3406 15.9382,-0.8492 4.3095,-1.1906 7.7731,-1.7441 7.7731,-1.1755 0,0.5684 -2.3211,4.1159 -5.1603,7.8385 -2.8392,3.722 -5.1288,7.714 -5.1602,8.8834 -0.032,1.1696 -0.6951,5.7312 -1.4372,10.1246 -0.742,4.3938 -0.2069,14.6622 1.1759,22.8622 l 2.482,14.9584 6.3362,-8.0344 c 3.4598,-4.4081 8.1154,-10.3839 10.3859,-13.26 6.8898,-8.728 7.6483,-19.4765 2.7436,-39.9109 -1.1184,-4.6579 -0.9536,-4.7431 7.0546,-2.025 10.57,3.588 23.774,4.4054 30.5045,1.829 5.2975,-2.0278 5.3295,-2.0534 -6.7278,-13.848 -6.6429,-6.4978 -15.0681,-12.5847 -18.682,-13.5211 l -6.532,-1.6984 6.2707,-6.9239 c 4.5784,-5.0123 8.2198,-6.948 13.3254,-7.0546 3.8664,-0.082 9.4223,-0.4266 12.3457,-0.7839 2.9235,-0.3576 20.1525,-1.267 38.2778,-2.0249 4.8123,-0.2007 9.7501,-0.3588 14.7624,-0.392 z m -721.8561,47.8799 c 16.0423,-0.2545 35.0313,3.6453 42.9807,10.19 4.637,3.8179 20.7684,26.1114 19.5309,26.9775 -0.3779,0.2641 -5.699,2.4859 -11.8228,4.9643 -6.1241,2.4784 -14.5581,7.1253 -18.7471,10.3205 -9.0668,6.9155 -7.8209,8.1581 11.6925,11.3005 14.3397,2.3093 17.4047,3.7246 13.3904,6.2053 -4.0471,2.5015 -25.6358,34.4817 -30.7005,45.4631 -4.6778,10.1431 -8.8867,12.8997 -23.842,15.6116 -2.982,0.5406 -7.8238,1.8817 -10.7778,3.0048 l -5.3563,2.0248 0,-13.5212 0,-13.4561 9.6674,-2.4821 c 9.5767,-2.4114 26.4119,-15.4794 31.0272,-24.1034 2.0288,-3.7907 1.2135,-3.9102 -16.6567,-2.5474 -10.6576,0.813 -22.7631,3.1935 -28.0878,5.4869 -5.1506,2.2189 -9.7984,3.5924 -10.3206,3.07 -0.5221,-0.5221 -1.4036,-4.2998 -1.9597,-8.4263 -0.5559,-4.1261 -1.7181,-10.0281 -2.5475,-13.1292 -1.5004,-5.61 -1.5538,-5.6053 -13.4558,7.2504 -12.9405,13.9774 -15.8673,21.5209 -12.7375,32.8561 1.9771,7.1608 1.8829,7.3241 -7.512,11.8885 -7.4704,3.6296 -28.8902,8.1396 -41.413,8.6876 -4.2603,0.186 14.8968,-39.721 30.1779,-62.8382 17.2556,-26.1042 46.163,-56.4796 58.7231,-61.728 4.7935,-2.0027 11.455,-2.9542 18.747,-3.07 z m 869.0883,0 c 8.5029,-0.054 16.4455,0.8696 21.1639,2.8741 21.4793,9.1254 62.544,59.4902 81.0627,99.3525 8.6534,18.6267 11.0163,25.4994 8.6223,25.4096 -12.2177,-0.4614 -34.3352,-5.0151 -41.0213,-8.4263 -8.2943,-4.2317 -8.4909,-4.5286 -7.3159,-13.3254 0.6624,-4.9582 0.2883,-11.4301 -0.8491,-14.3704 -2.268,-5.8639 -21.0498,-27.6306 -23.8421,-27.6306 -0.9581,0 -2.3624,4.1095 -3.1353,9.0796 -2.6604,17.1066 -2.2163,16.6499 -12.3456,12.2803 -5.1235,-2.2104 -17.4843,-4.508 -28.9369,-5.3566 l -19.9881,-1.4368 6.8586,8.6223 c 9.6697,12.2087 15.7695,16.4723 27.9572,19.5961 l 10.5819,2.7433 -1.3716,12.8682 c -0.7719,7.0792 -1.4958,12.9324 -1.6331,13.0641 -0.1374,0.1314 -2.6941,-0.5128 -5.6176,-1.4371 -2.9233,-0.9243 -10.574,-3.1 -17.0486,-4.8991 -10.2922,-2.86 -12.1357,-4.2208 -14.4357,-10.5818 -1.447,-4.0013 -5.779,-11.4252 -9.6675,-16.5261 -3.8885,-5.1011 -8.7796,-12.6293 -10.8432,-16.7221 -2.0636,-4.0926 -6.2016,-10.1096 -9.2102,-13.3252 -5.417,-5.7901 -5.4537,-5.8117 -0.8491,-6.0751 2.5575,-0.1465 5.3937,-0.4848 6.2707,-0.7183 0.8771,-0.2337 6.1234,-1.1658 11.6923,-2.0902 5.569,-0.9246 10.643,-2.4385 11.2352,-3.3967 1.7128,-2.7715 -11.842,-12.0718 -25.0177,-17.114 -12.0039,-4.5935 -12.0845,-4.6446 -9.2103,-10.19 1.5916,-3.0706 6.9332,-10.1277 11.8231,-15.6769 6.906,-7.8375 11.4135,-10.8029 20.3146,-13.3906 7.1533,-2.0796 16.2536,-3.147 24.7564,-3.2008 z m -115.1598,13.26 c 5.138,-0.1072 23.3193,2.7083 23.3193,3.854 0,0.8394 -5.6413,5.0164 -12.5415,9.2755 -6.9002,4.2589 -13.0296,7.7731 -13.5867,7.7731 -0.8545,0 0.5579,-19.3843 1.5024,-20.6413 0.1103,-0.1465 0.5724,-0.2461 1.3065,-0.2613 z m -638.1806,0.6533 c 2.5509,-0.053 4.5114,0.054 5.0948,0.3918 0.8771,0.5075 1.5677,5.193 1.5677,10.3861 0,5.1931 -0.6906,9.3717 -1.5677,9.2755 -2.5504,-0.2808 -25.8951,-15.6464 -25.9974,-17.114 -0.082,-1.1752 13.2496,-2.7853 20.9026,-2.9394 z m -54.3465,1.1104 c 0.2534,0 5.7346,2.0043 12.1493,4.4418 6.4154,2.4375 13.3122,4.9318 15.3504,5.5522 3.0574,0.9305 2.3835,2.1901 -3.9845,7.2506 -4.2456,3.3739 -8.2981,6.0977 -9.0144,6.0748 -1.1588,-0.038 -15.6369,-23.3194 -14.5008,-23.3194 z m 750.1396,0.1299 -6.4014,11.0392 c -3.5086,6.0774 -7.1481,11.3238 -8.0996,11.627 -0.9516,0.3034 -4.8979,-2.0068 -8.8183,-5.0949 -8.2007,-6.4602 -7.8666,-6.8371 11.5616,-13.5214 l 11.7577,-4.0499 z m -741.7135,42.7849 c 0.3685,0.044 0.8779,0.2424 1.437,0.5879 1.1184,0.6913 1.5082,2.6597 0.8493,4.3763 -0.6585,1.7166 -2.1622,3.1354 -3.3315,3.1354 -1.1692,0 -1.5589,-1.5467 -0.8489,-3.3967 0.7098,-1.8497 1.3064,-3.8183 1.3064,-4.3762 0,-0.2791 0.2192,-0.3705 0.5877,-0.3267 z m 703.9584,0.1963 c 1.228,-0.1163 2.893,0.021 5.2256,0.3919 8.7477,1.3903 9.812,2.138 7.9037,5.2257 -0.764,1.2365 -5.0142,2.07 -9.4714,1.8945 -6.8175,-0.2672 -7.9352,-0.9438 -7.0546,-4.3115 0.5371,-2.0537 1.3498,-3.0061 3.3967,-3.2006 z m -678.4834,0.4575 c 6.7509,-0.2871 10.3942,2.46 5.8136,5.356 -4.7534,3.0052 -14.2641,2.493 -15.5465,-0.8491 -0.7882,-2.0545 1.2362,-3.2999 6.6629,-4.1805 1.075,-0.1734 2.1055,-0.2855 3.07,-0.3264 z m 706.8324,0.1965 c 1.5101,-0.1924 2.8381,0.9996 3.3966,3.1354 1.0909,4.171 0.3725,4.594 -4.3764,2.6782 -3.5338,-1.426 -3.369,-4.1996 0.3265,-5.6179 0.2216,-0.086 0.4376,-0.1693 0.6533,-0.1965 z m -295.379,29.2634 c -0.9497,0.027 -1.9449,0.1314 -3.07,0.1965 -13.9045,0.786 -31.0926,8.7217 -31.0926,14.3705 0,2.0125 0.6745,4.0609 1.5023,4.5726 1.6189,1.0003 1.1398,23.0101 -0.5878,27.0426 -0.5677,1.3245 0.077,4.4415 1.3716,6.9241 1.295,2.4822 2.3516,5.9004 2.3516,7.6424 0.021,4.7493 3.1189,7.674 10.386,9.7327 4.8007,1.36 6.5321,2.6477 6.5321,4.8339 0,2.5595 -0.5265,2.7921 -3.9193,1.5023 -2.1703,-0.8252 -4.2697,-1.5023 -4.6378,-1.5023 -0.3675,0 -0.6531,4.4218 -0.6531,9.8633 0,9.3172 -0.3239,10.1139 -4.8338,13.3254 -2.6335,1.875 -5.7073,5.6704 -6.8586,8.4264 -2.3191,5.5507 -22.0691,21.2697 -34.7504,27.6958 l -7.5772,3.8538 -8.0345,-5.0297 c -15.2431,-9.5814 -20.6814,-15.5688 -24.8218,-27.3037 -2.8203,-7.9942 -1.8051,-10.5247 4.7685,-11.7577 6.2824,-1.179 8.2304,-4.3568 8.2304,-13.1295 0,-3.7441 1.0392,-7.6228 2.4168,-9.1449 2.1807,-2.4095 2.096,-3.1837 -0.7839,-8.5569 -3.4009,-6.346 -4.1226,-11.3005 -1.6329,-11.3005 0.8459,0 1.5677,-1.0213 1.5677,-2.2209 0,-3.6791 -7.674,-17.6795 -10.4513,-19.0736 -1.4402,-0.723 -8.6048,-2.2286 -15.9382,-3.3315 l -13.3254,-2.0248 -7.4465,4.7685 c -4.0878,2.6323 -8.9095,6.2898 -10.7126,8.0997 -7.0838,7.1113 -10.7521,29.5456 -5.8787,35.9915 1.2593,1.6659 3.0088,5.6146 3.854,8.753 1.2354,4.589 2.553,6.0253 6.8584,7.4465 4.7336,1.562 5.3563,2.3742 5.3563,7.0546 0,2.9113 -1.7665,10.343 -3.9192,16.4607 -4.8079,13.6629 -6.2891,27.4677 -3.8537,35.7302 0.9974,3.3842 2.3947,10.2742 3.1354,15.3504 0.7409,5.076 2.4735,14.4267 3.8537,20.772 3.2048,14.7333 2.1325,25.2981 -4.7031,45.2016 -5.7529,16.7509 -8.3401,33.2461 -8.3609,53.236 -0.021,15.3998 -3.3631,39.1961 -7.0546,49.9049 -1.9533,5.6656 -5.7506,10.699 -15.089,20.0535 -8.8257,8.8402 -13.8996,15.4303 -17.4406,22.7315 -2.7496,5.6693 -5.0297,11.0018 -5.0297,11.8228 0,3.1612 -10.7553,9.4409 -26.8468,15.677 l -16.7871,6.532 -19.3349,19.139 c -10.6369,10.5309 -24.0283,22.9451 -29.7862,27.6305 -8.8547,7.2046 -14.893,14.5068 -14.893,17.9632 0,0.4651 3.0216,0.8491 6.7279,0.8491 3.7064,0 11.4431,1.7604 17.1792,3.9191 8.3056,3.1286 12.1611,3.7868 19.0084,3.1354 l 8.6223,-0.8497 -5.6831,2.4822 c -5.6368,2.4329 -8.2501,5.6872 -6.5972,8.361 0.4758,0.7697 4.4917,1.4371 8.8836,1.4371 5.3634,0 9.6812,1.059 13.1946,3.2006 2.8771,1.7542 9.1079,3.8115 13.7826,4.5726 10.0102,1.6291 12.3378,3.3263 9.4061,6.8586 -1.7368,2.0928 -1.7259,2.7443 0.1314,3.9192 3.088,1.9542 5.3581,1.7482 15.546,-1.1104 8.6613,-2.4305 9.21,-2.3918 18.2245,0.9798 l 9.2755,3.462 8.5569,-3.2662 c 9.9942,-3.8243 19.5853,-4.188 25.7365,-0.9797 3.3565,1.7504 5.851,1.9214 10.7778,0.7839 13.5436,-3.1264 39.0158,-0.029 40.956,4.9643 0.4198,1.0803 1.0278,0.039 1.3065,-2.2861 0.4461,-3.7252 1.1349,-4.1805 5.9439,-4.1805 4.9657,0 5.4236,-0.3618 4.7685,-3.7888 -1.0566,-5.5262 2.1506,-5.9696 16.5912,-2.2861 11.4459,2.9192 13.0132,3.0466 16.2649,0.9797 1.9868,-1.2625 7.431,-2.8256 12.0844,-3.3967 19.5199,-2.3955 25.7881,-6.4292 21.0985,-13.5866 -2.0971,-3.1999 -1.9453,-3.317 2.6128,-3.3967 2.6303,-0.045 7.885,-0.3305 11.6921,-0.6529 3.8072,-0.3228 6.9243,-0.054 6.9243,0.6529 0,1.9634 5.4724,3.6694 12.1493,3.7889 5.8213,0.1042 5.9184,0.2114 3.3314,3.0698 -1.4683,1.6225 -2.4347,4.5587 -2.1555,6.5321 0.4436,3.1305 1.5193,3.6806 8.2303,4.1151 12.002,0.7774 18.9511,-2.0587 27.3041,-11.0391 5.8635,-6.3041 7.6476,-7.4707 8.7528,-5.683 1.4945,2.4185 4.2823,1.3648 17.1141,-6.532 l 5.5522,-3.3967 -3.3967,-10.059 c -4.1421,-12.2445 -6.5041,-16.1822 -10.8432,-18.1593 -2.5099,-1.1436 -4.8557,-6.1515 -9.602,-20.5105 -7.3795,-22.3244 -10.3294,-33.5483 -12.6069,-47.9454 -1.8888,-11.9385 -6.4626,-22.0847 -14.3706,-31.5496 -2.9766,-3.5631 -5.9163,-7.8682 -6.4666,-9.6021 -0.5504,-1.7341 0.9442,-11.547 3.2659,-21.8172 3.5878,-15.8702 3.9421,-19.8344 2.6128,-26.3241 -1.3191,-6.4406 -1.1386,-8.3565 1.1759,-12.3456 2.9732,-5.1239 7.6424,-36.5454 7.6424,-51.6029 0,-8.299 -2.4195,-18.0033 -6.336,-25.6055 -1.3392,-2.6002 -0.8693,-4.7472 2.2862,-10.9739 4.2336,-8.3548 11.7577,-47.5964 11.7577,-61.4013 0,-12.0859 -4.086,-24.6073 -14.6972,-44.9404 -5.4559,-10.4549 -9.9288,-19.9205 -9.9288,-21.0986 0,-1.1785 -0.7216,-2.1555 -1.5677,-2.1555 -2.3489,0 -1.8218,-5.8624 1.5677,-18.0938 3.6476,-13.1622 3.9391,-24.9913 0.7839,-31.0926 -1.4241,-2.7545 -5.4886,-5.9692 -10.7778,-8.5568 -6.3575,-3.1083 -9.2256,-3.9183 -15.873,-3.7235 z m -430.0698,6.5975 -0.7185,14.1745 -0.6532,14.2398 -10.4513,0.7185 -10.5164,0.7186 0,-11.1699 c 3e-4,-6.1394 -0.2303,-11.822 -0.5225,-12.6068 -0.2926,-0.7844 4.7381,-2.4358 11.1696,-3.7232 l 11.6923,-2.3515 z m 720.1579,0.7838 10.9738,1.5023 c 6.0074,0.8086 11.1181,1.6162 11.3658,1.829 0.2477,0.2128 -0.2781,6.1007 -1.1105,13.0641 l -1.5023,12.6722 -9.5368,-0.6532 -9.6021,-0.588 -0.2613,-13.9132 -0.3266,-13.9132 z m 122.9331,26.0628 c 1.32,-0.2458 2.0248,0.7535 2.0248,3.0048 0,1.7539 -0.8205,3.2006 -1.8942,3.2006 -1.0738,0 -3.7368,0.654 -5.8788,1.4372 -3.6794,1.3449 -3.6958,1.1568 0.1314,-3.2008 2.3631,-2.6913 4.2974,-4.1959 5.6175,-4.4418 z m -966.0894,1.3718 c 1.1409,0.094 2.6921,1.3046 4.9644,3.7232 5.5985,5.9594 5.5722,6.0576 -2.4822,2.4822 -3.7054,-1.6448 -5.1622,-3.4661 -4.1153,-5.1602 0.4404,-0.7126 0.9486,-1.1024 1.6331,-1.0452 z m -25.2136,11.2352 c 17.8642,-0.033 25.9423,3.7874 36.5794,17.2446 l 8.9488,11.2351 -8.165,4.1151 c -7.3536,3.6776 -27.8168,26.0071 -25.7361,28.0877 0.4644,0.4646 7.7487,1.0778 16.2649,1.3064 8.9006,0.2393 15.7529,1.3706 16.0685,2.6781 2.2022,9.1215 6.3824,19.8004 8.8836,22.6663 2.6625,3.0507 1.6336,3.914 -9.6674,8.0345 -25.6735,9.361 -48.6711,31.7692 -64.6018,62.9689 -3.5824,7.0164 -8.9645,20.7417 -12.019,30.4392 l -5.5521,17.6367 -2.6129,-7.2507 c -7.1701,-19.8281 -8.6795,-73.2233 -3.7233,-131.1635 3.5706,-41.7433 5.3653,-56.0083 7.4465,-59.3761 2.404,-3.8895 23.1182,-8.5953 37.8859,-8.6223 z m 1016.3207,0 c 13.7058,-0.021 38.7126,5.9699 38.735,9.2753 0.015,1.3197 0.8718,10.1381 1.9596,19.5961 7.1151,61.8696 7.6444,152.335 0.9799,169.7027 -2.2276,5.8044 -4.4624,3.764 -7.3813,-6.7281 -7.418,-26.6633 -27.9823,-61.0723 -46.6388,-77.9272 -7.5459,-6.8173 -27.9072,-17.9587 -38.8656,-21.2946 -3.5497,-1.0805 -3.4989,-1.7424 0.8491,-10.2553 2.5501,-4.993 4.7174,-11.447 4.8337,-14.3705 0.2257,-5.6654 0.3397,-5.6712 27.7612,-6.2055 l 8.361,-0.1965 -5.3563,-5.8136 c -2.954,-3.2154 -7.421,-8.8797 -9.9287,-12.5415 -2.5076,-3.6618 -8.3832,-8.444 -13.0641,-10.6472 l -8.5569,-3.9846 9.4714,-12.0841 c 10.5413,-13.4305 17.4711,-16.5053 36.8408,-16.526 z m -95.8904,0.1965 c 3.4937,-0.1163 23.9994,6.5424 25.083,8.2956 0.5101,0.8257 -4.5487,4.1468 -11.2351,7.4467 -6.6864,3.2997 -13.9522,7.5637 -16.1995,9.4062 -2.2475,1.8421 -3.5157,2.3329 -2.8087,1.1103 0.7068,-1.2226 1.8223,-7.4399 2.5474,-13.7827 0.7253,-6.3425 1.6981,-11.8879 2.1557,-12.3455 0.071,-0.071 0.2243,-0.1238 0.4572,-0.1299 z m -826.3688,0.4565 c 0.7982,-0.045 1.3588,0.053 1.5677,0.2613 0.6936,0.6937 1.9328,6.2235 2.7434,12.3457 0.8106,6.1221 1.3872,11.3207 1.241,11.4964 -0.811,0.9772 -29.0023,-14.5154 -29.0023,-15.9382 0,-1.9246 17.8616,-7.8358 23.4502,-8.1652 z m -47.8799,10.0595 c 1.6027,0.021 4.7414,1.4963 9.5366,4.4418 5.2409,3.2188 6.4919,4.8976 4.2459,5.6173 -1.754,0.5623 -4.2247,1.8956 -5.5523,2.9397 -1.6122,1.268 -3.9029,-0.6081 -6.8586,-5.6176 -2.9162,-4.9426 -3.4321,-7.3958 -1.3716,-7.3812 z m 924.4801,0.1299 c 0.1765,0.021 0.3138,0.05 0.3919,0.1314 0.3525,0.361 -0.9335,3.6657 -2.8741,7.3159 -3.0845,5.8011 -4.1136,6.345 -8.2956,4.4418 -2.6311,-1.1975 -4.7685,-2.9996 -4.7685,-4.05 0,-1.7615 12.8977,-8.1099 15.5463,-7.8385 z m -446.2693,121.4308 c 0.2811,-0.8447 0.5225,20.2424 0.5225,46.8346 l 0,48.3372 4.4418,4.6379 c 2.426,2.5356 6.3796,5.4568 8.8185,6.4668 3.8737,1.6045 4.4414,2.6166 4.4417,8.165 0,7.3044 4.238,34.2624 10.7778,68.6518 2.494,13.1135 5.2426,30.4365 6.1401,38.4737 0.8976,8.0372 3.0545,19.3187 4.7685,25.0831 1.714,5.7642 2.7764,11.998 2.4168,13.8478 -0.3598,1.8501 -0.7342,2.3846 -0.8491,1.1757 -0.3311,-3.4726 -21.2493,-50.2211 -29.4596,-65.7775 -4.093,-7.7553 -9.5942,-20.2228 -12.2151,-27.6958 -2.6209,-7.4731 -8.2334,-20.8376 -12.4106,-29.7209 -9.5138,-20.2297 -11.142,-30.8808 -10.5166,-68.3907 0.2545,-15.2735 -0.1254,-34.008 -0.8493,-41.6742 -1.7004,-17.9964 -0.9087,-19.4159 12.8027,-23.5808 5.8701,-1.783 10.889,-3.9893 11.1699,-4.8337 z m -103.7287,370.5627 c 11.1144,-0.083 20.9977,2.1213 30.6351,6.6629 20.3965,9.6117 30.0705,20.8714 38.0819,44.1567 14.1988,41.27 0.2711,86.53 -29.1983,94.7144 -4.3488,1.208 -8.4296,2.047 -9.0141,1.8944 -0.5849,-0.1527 -3.4127,-0.6977 -6.3362,-1.241 -7.1179,-1.3227 -23.9558,-13.8883 -27.5,-20.5108 -3.587,-6.7024 -2.1469,-34.3213 2.1558,-41.2826 1.6551,-2.6777 8.1952,-7.4211 14.501,-10.5164 9.4445,-4.6358 10.6957,-5.8845 7.3812,-7.1852 -7.647,-3.0014 -28.5795,-2.0123 -34.7506,1.6331 -7.9911,4.7201 -20.64,24.3059 -22.4047,34.7503 -0.7876,4.662 -2.1519,8.8791 -3.0047,9.4062 -0.8529,0.5272 -10.9509,-4.6914 -22.4703,-11.6272 -11.5194,-6.9359 -22.6785,-13.1677 -24.8218,-13.848 -5.7784,-1.8339 -4.7626,-4.0439 3.2006,-6.9236 10.1703,-3.6776 22.2515,-16.6721 25.0179,-26.8468 1.7382,-6.3927 1.7374,-12.1409 -0.065,-22.013 -1.3441,-7.3585 -1.9079,-14.2717 -1.2411,-15.3504 0.6665,-1.0785 10.5247,-4.9882 21.8824,-8.6875 14.4997,-4.7231 26.8366,-7.1018 37.951,-7.1855 z m 175.32,0.5226 c 10.229,0.088 21.1791,1.8393 32.7254,5.4217 29.4285,9.1308 28.7612,8.7458 26.4548,16.7873 -3.0017,10.4665 -2.3831,30.8692 1.1106,37.6245 3.9837,7.7043 16.7661,18.8822 23.5154,20.576 4.9302,1.2376 7.4992,5.1606 3.3966,5.1606 -1.019,0 -12.091,6.1815 -24.6259,13.7824 -12.5347,7.6009 -23.1198,13.8479 -23.5154,13.8479 -0.3957,0 -2.3039,-5.47 -4.2459,-12.1496 -1.9416,-6.6793 -5.8033,-14.8747 -8.6223,-18.2245 -2.8185,-3.3494 -5.1393,-6.7896 -5.1601,-7.5772 0,-0.7872 -3.2243,-3.6389 -7.1853,-6.3359 -7.7736,-5.293 -23.3581,-6.6445 -33.1828,-2.9393 -5.1515,1.9424 -5.0128,2.1375 5.2909,7.0546 14.6896,7.0096 18.4881,14.8076 17.6367,36.2527 -0.7038,17.7182 -3.6616,23.0907 -17.5713,31.4192 -19.8413,11.8793 -42.0768,3.289 -53.367,-20.576 -7.0161,-14.831 -9.3475,-42.3653 -5.1602,-60.356 9.0174,-38.7418 35.9731,-60.0794 72.5058,-59.7684 z m -258.7341,17.5059 c 0.4591,0 1.4834,5.6272 2.286,12.5416 1.8267,15.739 -2.3582,26.0022 -12.6722,30.8966 -9.5625,4.5376 -22.9879,4.3311 -27.108,-0.3919 -5.313,-6.091 -8.0343,-12.5888 -8.0343,-19.2042 0,-5.9355 1.0506,-6.6456 22.3396,-15.0237 12.289,-4.8365 22.7291,-8.8184 23.1889,-8.8184 z m 341.7564,1.2412 c 2.4582,0.1797 10.3,2.6856 18.9428,6.0747 9.8772,3.8738 19.6398,7.6018 21.6863,8.2958 7.3953,2.5077 3.3589,23.2008 -5.7482,29.5249 -1.2368,0.859 -6.8699,1.6121 -12.5414,1.6328 -8.9138,0.029 -11.3224,-1.0017 -17.5712,-7.2504 -6.852,-6.8524 -7.1852,-7.9537 -7.1852,-22.1436 0,-8.2337 0.7592,-15.4883 1.6983,-16.069 0.1163,-0.072 0.3673,-0.091 0.7186,-0.065 z m 59.0498,18.551 c 0.8613,-0.1344 2.1416,0.1465 3.9191,0.5226 3.2155,0.6804 8.0333,1.6753 10.7125,2.2209 2.679,0.5455 4.3017,1.8329 3.658,2.8741 -0.6437,1.0413 -5.4614,4.3157 -10.7126,7.2505 l -9.5369,5.291 0,-9.4715 c 0,-6.3256 0.065,-8.3947 1.9599,-8.6876 z m -461.2932,0.065 c 2.016,0.054 2.2211,1.8748 2.2211,7.7732 0,4.6997 -0.2305,8.4808 -0.5226,8.4262 -3.8073,-0.7184 -23.0958,-12.5451 -20.7721,-12.7374 4.0008,-0.3298 10.0475,-1.4115 16.3955,-3.0047 1.1295,-0.2835 2.0063,-0.4753 2.6781,-0.4573 z m 4.9644,63.4914 -9.6675,8.2957 c -5.3235,4.5504 -10.6619,11.114 -11.8881,14.6318 -2.5525,7.3217 -1.7606,7.6239 10.3858,3.9845 10.593,-3.1736 18.277,-0.9542 22.0131,6.2708 3.2602,6.3046 1.7349,11.7163 -4.703,16.8528 -5.5943,4.4631 -25.189,3.4216 -30.2435,-1.633 -8.2289,-8.2288 -10.1432,-18.1555 -6.2056,-32.3335 2.496,-8.9878 6.2562,-11.5893 20.4455,-14.2402 l 9.8633,-1.8289 z m 453.5198,0.7187 c 0.8102,-0.161 3.2325,0.262 7.7732,1.1102 5.5673,1.0402 12.1232,2.908 14.501,4.1805 12.1765,6.5168 10.6642,37.6875 -2.1555,44.5488 -2.2499,1.204 -8.7814,2.1555 -14.5012,2.1555 -8.1218,0 -11.4136,-1.056 -15.0237,-4.8991 -5.7665,-6.138 -5.9243,-12.9531 -0.3919,-18.4856 4.7884,-4.7883 10.1202,-5.2621 22.0131,-1.9597 4.4948,1.248 8.5717,1.8792 9.0795,1.3717 3.192,-3.192 -7.1966,-16.9601 -19.4003,-25.736 -1.9042,-1.3698 -2.7044,-2.1262 -1.8942,-2.2863 z m -227.4457,27.5651 9.4716,9.6021 c 8.6525,8.8315 13.8361,11.6216 42.7193,22.9928 2.8067,1.1051 -2.473,7.6056 -24.887,30.5699 -22.9764,23.5409 -28.8498,28.525 -30.3739,25.8016 -1.0389,-1.8563 -13.544,-15.0259 -27.7613,-29.2634 l -25.8015,-25.8669 17.5711,-6.2708 c 13.9557,-4.9977 19.7232,-8.5326 28.2838,-16.9833 l 10.7779,-10.582 z" />
    </g>
  </g>
</svg>
